<svg xmlns="http://www.w3.org/2000/svg" width="1024" height="1024" viewBox="0 0 1024 1024">
  <g shape-rendering="crispEdges">
    <rect x="272" y="0" width="144" height="16" fill="#222222" />
    <rect x="240" y="16" width="32" height="16" fill="#222222" />
    <rect x="272" y="16" width="144" height="16" fill="#559900" />
    <rect x="416" y="16" width="32" height="16" fill="#222222" />
    <rect x="224" y="32" width="16" height="16" fill="#222222" />
    <rect x="240" y="32" width="208" height="16" fill="#559900" />
    <rect x="448" y="32" width="16" height="16" fill="#222222" />
    <rect x="208" y="48" width="16" height="16" fill="#222222" />
    <rect x="224" y="48" width="240" height="16" fill="#559900" />
    <rect x="464" y="48" width="16" height="16" fill="#222222" />
    <rect x="192" y="64" width="16" height="16" fill="#222222" />
    <rect x="208" y="64" width="272" height="16" fill="#559900" />
    <rect x="480" y="64" width="16" height="16" fill="#222222" />
    <rect x="176" y="80" width="16" height="16" fill="#222222" />
    <rect x="192" y="80" width="16" height="16" fill="#ff8833" />
    <rect x="208" y="80" width="96" height="16" fill="#559900" />
    <rect x="304" y="80" width="32" height="16" fill="#222222" />
    <rect x="336" y="80" width="144" height="16" fill="#559900" />
    <rect x="480" y="80" width="16" height="16" fill="#222222" />
    <rect x="144" y="96" width="32" height="16" fill="#222222" />
    <rect x="176" y="96" width="32" height="16" fill="#ff8833" />
    <rect x="208" y="96" width="80" height="16" fill="#559900" />
    <rect x="288" y="96" width="64" height="16" fill="#222222" />
    <rect x="352" y="96" width="128" height="16" fill="#559900" />
    <rect x="480" y="96" width="16" height="16" fill="#222222" />
    <rect x="16" y="112" width="128" height="16" fill="#222222" />
    <rect x="144" y="112" width="48" height="16" fill="#ff8833" />
    <rect x="192" y="112" width="96" height="16" fill="#559900" />
    <rect x="288" y="112" width="64" height="16" fill="#222222" />
    <rect x="352" y="112" width="144" height="16" fill="#559900" />
    <rect x="496" y="112" width="16" height="16" fill="#222222" />
    <rect x="0" y="128" width="16" height="16" fill="#222222" />
    <rect x="16" y="128" width="176" height="16" fill="#ff8833" />
    <rect x="192" y="128" width="112" height="16" fill="#559900" />
    <rect x="304" y="128" width="32" height="16" fill="#222222" />
    <rect x="336" y="128" width="160" height="16" fill="#559900" />
    <rect x="496" y="128" width="16" height="16" fill="#222222" />
    <rect x="0" y="144" width="16" height="16" fill="#222222" />
    <rect x="16" y="144" width="176" height="16" fill="#ff8833" />
    <rect x="192" y="144" width="304" height="16" fill="#559900" />
    <rect x="496" y="144" width="16" height="16" fill="#222222" />
    <rect x="16" y="160" width="16" height="16" fill="#222222" />
    <rect x="32" y="160" width="160" height="16" fill="#ff8833" />
    <rect x="192" y="160" width="304" height="16" fill="#559900" />
    <rect x="496" y="160" width="16" height="16" fill="#222222" />
    <rect x="32" y="176" width="16" height="16" fill="#222222" />
    <rect x="48" y="176" width="160" height="16" fill="#ff8833" />
    <rect x="208" y="176" width="288" height="16" fill="#559900" />
    <rect x="496" y="176" width="16" height="16" fill="#222222" />
    <rect x="48" y="192" width="176" height="16" fill="#222222" />
    <rect x="224" y="192" width="256" height="16" fill="#559900" />
    <rect x="480" y="192" width="16" height="16" fill="#222222" />
    <rect x="224" y="208" width="16" height="16" fill="#222222" />
    <rect x="240" y="208" width="240" height="16" fill="#559900" />
    <rect x="480" y="208" width="16" height="16" fill="#222222" />
    <rect x="240" y="224" width="32" height="16" fill="#222222" />
    <rect x="272" y="224" width="192" height="16" fill="#559900" />
    <rect x="464" y="224" width="16" height="16" fill="#222222" />
    <rect x="256" y="240" width="16" height="16" fill="#222222" />
    <rect x="272" y="240" width="192" height="16" fill="#559900" />
    <rect x="464" y="240" width="16" height="16" fill="#222222" />
    <rect x="256" y="256" width="16" height="16" fill="#222222" />
    <rect x="272" y="256" width="192" height="16" fill="#559900" />
    <rect x="464" y="256" width="16" height="16" fill="#222222" />
    <rect x="256" y="272" width="16" height="16" fill="#222222" />
    <rect x="272" y="272" width="176" height="16" fill="#559900" />
    <rect x="448" y="272" width="16" height="16" fill="#222222" />
    <rect x="912" y="272" width="48" height="16" fill="#222222" />
    <rect x="240" y="288" width="16" height="16" fill="#222222" />
    <rect x="256" y="288" width="192" height="16" fill="#559900" />
    <rect x="448" y="288" width="16" height="16" fill="#222222" />
    <rect x="896" y="288" width="16" height="16" fill="#222222" />
    <rect x="912" y="288" width="48" height="16" fill="#666666" />
    <rect x="960" y="288" width="16" height="16" fill="#222222" />
    <rect x="240" y="304" width="192" height="16" fill="#559900" />
    <rect x="432" y="304" width="16" height="16" fill="#222222" />
    <rect x="896" y="304" width="16" height="16" fill="#222222" />
    <rect x="912" y="304" width="64" height="16" fill="#666666" />
    <rect x="976" y="304" width="16" height="16" fill="#222222" />
    <rect x="224" y="320" width="16" height="16" fill="#222222" />
    <rect x="240" y="320" width="192" height="16" fill="#559900" />
    <rect x="432" y="320" width="16" height="16" fill="#222222" />
    <rect x="896" y="320" width="16" height="16" fill="#222222" />
    <rect x="912" y="320" width="80" height="16" fill="#666666" />
    <rect x="992" y="320" width="16" height="16" fill="#222222" />
    <rect x="208" y="336" width="16" height="16" fill="#222222" />
    <rect x="224" y="336" width="32" height="16" fill="#eeeeee" />
    <rect x="256" y="336" width="160" height="16" fill="#559900" />
    <rect x="416" y="336" width="16" height="16" fill="#eeeeee" />
    <rect x="432" y="336" width="16" height="16" fill="#222222" />
    <rect x="480" y="336" width="256" height="16" fill="#222222" />
    <rect x="880" y="336" width="16" height="16" fill="#222222" />
    <rect x="896" y="336" width="96" height="16" fill="#666666" />
    <rect x="992" y="336" width="16" height="16" fill="#222222" />
    <rect x="208" y="352" width="16" height="16" fill="#222222" />
    <rect x="224" y="352" width="96" height="16" fill="#eeeeee" />
    <rect x="320" y="352" width="32" height="16" fill="#559900" />
    <rect x="352" y="352" width="80" height="16" fill="#eeeeee" />
    <rect x="432" y="352" width="48" height="16" fill="#222222" />
    <rect x="480" y="352" width="256" height="16" fill="#bb9988" />
    <rect x="736" y="352" width="64" height="16" fill="#222222" />
    <rect x="832" y="352" width="48" height="16" fill="#222222" />
    <rect x="880" y="352" width="128" height="16" fill="#666666" />
    <rect x="1008" y="352" width="16" height="16" fill="#222222" />
    <rect x="208" y="368" width="16" height="16" fill="#222222" />
    <rect x="224" y="368" width="208" height="16" fill="#eeeeee" />
    <rect x="432" y="368" width="16" height="16" fill="#222222" />
    <rect x="448" y="368" width="352" height="16" fill="#bb9988" />
    <rect x="800" y="368" width="32" height="16" fill="#222222" />
    <rect x="832" y="368" width="176" height="16" fill="#666666" />
    <rect x="1008" y="368" width="16" height="16" fill="#222222" />
    <rect x="192" y="384" width="16" height="16" fill="#222222" />
    <rect x="208" y="384" width="48" height="16" fill="#666666" />
    <rect x="256" y="384" width="160" height="16" fill="#eeeeee" />
    <rect x="416" y="384" width="16" height="16" fill="#666666" />
    <rect x="432" y="384" width="400" height="16" fill="#bb9988" />
    <rect x="832" y="384" width="176" height="16" fill="#666666" />
    <rect x="1008" y="384" width="16" height="16" fill="#222222" />
    <rect x="176" y="400" width="16" height="16" fill="#222222" />
    <rect x="192" y="400" width="96" height="16" fill="#666666" />
    <rect x="288" y="400" width="80" height="16" fill="#eeeeee" />
    <rect x="368" y="400" width="48" height="16" fill="#666666" />
    <rect x="416" y="400" width="416" height="16" fill="#bb9988" />
    <rect x="832" y="400" width="176" height="16" fill="#666666" />
    <rect x="1008" y="400" width="16" height="16" fill="#222222" />
    <rect x="160" y="416" width="16" height="16" fill="#222222" />
    <rect x="176" y="416" width="224" height="16" fill="#666666" />
    <rect x="400" y="416" width="416" height="16" fill="#bb9988" />
    <rect x="816" y="416" width="192" height="16" fill="#666666" />
    <rect x="1008" y="416" width="16" height="16" fill="#222222" />
    <rect x="160" y="432" width="16" height="16" fill="#222222" />
    <rect x="176" y="432" width="224" height="16" fill="#666666" />
    <rect x="400" y="432" width="416" height="16" fill="#bb9988" />
    <rect x="816" y="432" width="192" height="16" fill="#666666" />
    <rect x="1008" y="432" width="16" height="16" fill="#222222" />
    <rect x="144" y="448" width="16" height="16" fill="#222222" />
    <rect x="160" y="448" width="224" height="16" fill="#666666" />
    <rect x="384" y="448" width="432" height="16" fill="#bb9988" />
    <rect x="816" y="448" width="192" height="16" fill="#666666" />
    <rect x="1008" y="448" width="16" height="16" fill="#222222" />
    <rect x="144" y="464" width="16" height="16" fill="#222222" />
    <rect x="160" y="464" width="224" height="16" fill="#666666" />
    <rect x="384" y="464" width="448" height="16" fill="#bb9988" />
    <rect x="832" y="464" width="160" height="16" fill="#666666" />
    <rect x="992" y="464" width="16" height="16" fill="#222222" />
    <rect x="144" y="480" width="16" height="16" fill="#222222" />
    <rect x="160" y="480" width="224" height="16" fill="#666666" />
    <rect x="384" y="480" width="448" height="16" fill="#bb9988" />
    <rect x="832" y="480" width="160" height="16" fill="#666666" />
    <rect x="992" y="480" width="16" height="16" fill="#222222" />
    <rect x="144" y="496" width="16" height="16" fill="#222222" />
    <rect x="160" y="496" width="224" height="16" fill="#666666" />
    <rect x="384" y="496" width="432" height="16" fill="#bb9988" />
    <rect x="816" y="496" width="176" height="16" fill="#666666" />
    <rect x="992" y="496" width="16" height="16" fill="#222222" />
    <rect x="144" y="512" width="16" height="16" fill="#222222" />
    <rect x="160" y="512" width="224" height="16" fill="#666666" />
    <rect x="384" y="512" width="432" height="16" fill="#bb9988" />
    <rect x="816" y="512" width="160" height="16" fill="#666666" />
    <rect x="976" y="512" width="16" height="16" fill="#222222" />
    <rect x="144" y="528" width="16" height="16" fill="#222222" />
    <rect x="160" y="528" width="208" height="16" fill="#666666" />
    <rect x="368" y="528" width="16" height="16" fill="#997755" />
    <rect x="384" y="528" width="432" height="16" fill="#bb9988" />
    <rect x="816" y="528" width="160" height="16" fill="#666666" />
    <rect x="976" y="528" width="16" height="16" fill="#222222" />
    <rect x="144" y="544" width="16" height="16" fill="#222222" />
    <rect x="160" y="544" width="192" height="16" fill="#666666" />
    <rect x="352" y="544" width="32" height="16" fill="#997755" />
    <rect x="384" y="544" width="416" height="16" fill="#bb9988" />
    <rect x="800" y="544" width="32" height="16" fill="#997755" />
    <rect x="832" y="544" width="128" height="16" fill="#666666" />
    <rect x="960" y="544" width="16" height="16" fill="#222222" />
    <rect x="144" y="560" width="16" height="16" fill="#222222" />
    <rect x="160" y="560" width="176" height="16" fill="#666666" />
    <rect x="336" y="560" width="64" height="16" fill="#997755" />
    <rect x="400" y="560" width="400" height="16" fill="#bb9988" />
    <rect x="800" y="560" width="32" height="16" fill="#997755" />
    <rect x="832" y="560" width="128" height="16" fill="#666666" />
    <rect x="960" y="560" width="16" height="16" fill="#222222" />
    <rect x="160" y="576" width="16" height="16" fill="#222222" />
    <rect x="176" y="576" width="144" height="16" fill="#666666" />
    <rect x="320" y="576" width="96" height="16" fill="#997755" />
    <rect x="416" y="576" width="368" height="16" fill="#bb9988" />
    <rect x="784" y="576" width="48" height="16" fill="#997755" />
    <rect x="832" y="576" width="112" height="16" fill="#666666" />
    <rect x="944" y="576" width="16" height="16" fill="#222222" />
    <rect x="160" y="592" width="16" height="16" fill="#222222" />
    <rect x="176" y="592" width="128" height="16" fill="#666666" />
    <rect x="304" y="592" width="112" height="16" fill="#997755" />
    <rect x="416" y="592" width="352" height="16" fill="#bb9988" />
    <rect x="768" y="592" width="80" height="16" fill="#997755" />
    <rect x="848" y="592" width="80" height="16" fill="#666666" />
    <rect x="928" y="592" width="16" height="16" fill="#222222" />
    <rect x="160" y="608" width="16" height="16" fill="#222222" />
    <rect x="176" y="608" width="112" height="16" fill="#666666" />
    <rect x="288" y="608" width="160" height="16" fill="#997755" />
    <rect x="448" y="608" width="288" height="16" fill="#bb9988" />
    <rect x="736" y="608" width="112" height="16" fill="#997755" />
    <rect x="848" y="608" width="80" height="16" fill="#666666" />
    <rect x="928" y="608" width="16" height="16" fill="#222222" />
    <rect x="176" y="624" width="16" height="16" fill="#222222" />
    <rect x="192" y="624" width="80" height="16" fill="#666666" />
    <rect x="272" y="624" width="192" height="16" fill="#997755" />
    <rect x="464" y="624" width="240" height="16" fill="#bb9988" />
    <rect x="704" y="624" width="144" height="16" fill="#997755" />
    <rect x="848" y="624" width="64" height="16" fill="#666666" />
    <rect x="912" y="624" width="16" height="16" fill="#222222" />
    <rect x="176" y="640" width="16" height="16" fill="#222222" />
    <rect x="192" y="640" width="64" height="16" fill="#666666" />
    <rect x="256" y="640" width="256" height="16" fill="#997755" />
    <rect x="512" y="640" width="144" height="16" fill="#bb9988" />
    <rect x="656" y="640" width="192" height="16" fill="#997755" />
    <rect x="848" y="640" width="48" height="16" fill="#666666" />
    <rect x="896" y="640" width="16" height="16" fill="#222222" />
    <rect x="192" y="656" width="16" height="16" fill="#222222" />
    <rect x="208" y="656" width="32" height="16" fill="#666666" />
    <rect x="240" y="656" width="592" height="16" fill="#997755" />
    <rect x="832" y="656" width="48" height="16" fill="#666666" />
    <rect x="880" y="656" width="16" height="16" fill="#222222" />
    <rect x="208" y="672" width="16" height="16" fill="#222222" />
    <rect x="224" y="672" width="592" height="16" fill="#997755" />
    <rect x="816" y="672" width="48" height="16" fill="#666666" />
    <rect x="864" y="672" width="16" height="16" fill="#222222" />
    <rect x="224" y="688" width="16" height="16" fill="#222222" />
    <rect x="240" y="688" width="576" height="16" fill="#997755" />
    <rect x="816" y="688" width="16" height="16" fill="#666666" />
    <rect x="832" y="688" width="32" height="16" fill="#222222" />
    <rect x="240" y="704" width="16" height="16" fill="#222222" />
    <rect x="256" y="704" width="544" height="16" fill="#997755" />
    <rect x="800" y="704" width="16" height="16" fill="#666666" />
    <rect x="816" y="704" width="16" height="16" fill="#222222" />
    <rect x="256" y="720" width="32" height="16" fill="#222222" />
    <rect x="288" y="720" width="480" height="16" fill="#997755" />
    <rect x="768" y="720" width="48" height="16" fill="#222222" />
    <rect x="288" y="736" width="32" height="16" fill="#222222" />
    <rect x="320" y="736" width="432" height="16" fill="#997755" />
    <rect x="752" y="736" width="16" height="16" fill="#222222" />
    <rect x="320" y="752" width="64" height="16" fill="#222222" />
    <rect x="384" y="752" width="320" height="16" fill="#997755" />
    <rect x="704" y="752" width="32" height="16" fill="#222222" />
    <rect x="384" y="768" width="64" height="16" fill="#222222" />
    <rect x="448" y="768" width="192" height="16" fill="#997755" />
    <rect x="640" y="768" width="64" height="16" fill="#222222" />
    <rect x="432" y="784" width="16" height="16" fill="#222222" />
    <rect x="448" y="784" width="32" height="16" fill="#ff8833" />
    <rect x="480" y="784" width="112" height="16" fill="#222222" />
    <rect x="592" y="784" width="32" height="16" fill="#ff8833" />
    <rect x="624" y="784" width="16" height="16" fill="#222222" />
    <rect x="432" y="800" width="16" height="16" fill="#222222" />
    <rect x="448" y="800" width="32" height="16" fill="#ff8833" />
    <rect x="480" y="800" width="16" height="16" fill="#222222" />
    <rect x="576" y="800" width="16" height="16" fill="#222222" />
    <rect x="592" y="800" width="32" height="16" fill="#ff8833" />
    <rect x="624" y="800" width="16" height="16" fill="#222222" />
    <rect x="432" y="816" width="16" height="16" fill="#222222" />
    <rect x="448" y="816" width="32" height="16" fill="#ff8833" />
    <rect x="480" y="816" width="16" height="16" fill="#222222" />
    <rect x="576" y="816" width="16" height="16" fill="#222222" />
    <rect x="592" y="816" width="32" height="16" fill="#ff8833" />
    <rect x="624" y="816" width="16" height="16" fill="#222222" />
    <rect x="432" y="832" width="16" height="16" fill="#222222" />
    <rect x="448" y="832" width="32" height="16" fill="#ff8833" />
    <rect x="480" y="832" width="16" height="16" fill="#222222" />
    <rect x="576" y="832" width="16" height="16" fill="#222222" />
    <rect x="592" y="832" width="32" height="16" fill="#ff8833" />
    <rect x="624" y="832" width="16" height="16" fill="#222222" />
    <rect x="384" y="848" width="64" height="16" fill="#222222" />
    <rect x="448" y="848" width="32" height="16" fill="#ff8833" />
    <rect x="480" y="848" width="16" height="16" fill="#222222" />
    <rect x="576" y="848" width="16" height="16" fill="#222222" />
    <rect x="592" y="848" width="32" height="16" fill="#ff8833" />
    <rect x="624" y="848" width="16" height="16" fill="#222222" />
    <rect x="320" y="864" width="64" height="16" fill="#222222" />
    <rect x="384" y="864" width="96" height="16" fill="#ff8833" />
    <rect x="480" y="864" width="16" height="16" fill="#222222" />
    <rect x="576" y="864" width="16" height="16" fill="#222222" />
    <rect x="592" y="864" width="32" height="16" fill="#ff8833" />
    <rect x="624" y="864" width="16" height="16" fill="#222222" />
    <rect x="304" y="880" width="16" height="16" fill="#222222" />
    <rect x="320" y="880" width="160" height="16" fill="#ff8833" />
    <rect x="480" y="880" width="16" height="16" fill="#222222" />
    <rect x="560" y="880" width="16" height="16" fill="#222222" />
    <rect x="576" y="880" width="48" height="16" fill="#ff8833" />
    <rect x="624" y="880" width="16" height="16" fill="#222222" />
    <rect x="288" y="896" width="16" height="16" fill="#222222" />
    <rect x="304" y="896" width="144" height="16" fill="#ff8833" />
    <rect x="448" y="896" width="32" height="16" fill="#222222" />
    <rect x="544" y="896" width="16" height="16" fill="#222222" />
    <rect x="560" y="896" width="64" height="16" fill="#ff8833" />
    <rect x="624" y="896" width="16" height="16" fill="#222222" />
    <rect x="288" y="912" width="16" height="16" fill="#222222" />
    <rect x="304" y="912" width="128" height="16" fill="#ff8833" />
    <rect x="432" y="912" width="16" height="16" fill="#222222" />
    <rect x="528" y="912" width="16" height="16" fill="#222222" />
    <rect x="544" y="912" width="80" height="16" fill="#ff8833" />
    <rect x="624" y="912" width="16" height="16" fill="#222222" />
    <rect x="304" y="928" width="16" height="16" fill="#222222" />
    <rect x="320" y="928" width="96" height="16" fill="#ff8833" />
    <rect x="416" y="928" width="16" height="16" fill="#222222" />
    <rect x="512" y="928" width="16" height="16" fill="#222222" />
    <rect x="528" y="928" width="96" height="16" fill="#ff8833" />
    <rect x="624" y="928" width="16" height="16" fill="#222222" />
    <rect x="320" y="944" width="32" height="16" fill="#222222" />
    <rect x="352" y="944" width="48" height="16" fill="#ff8833" />
    <rect x="400" y="944" width="16" height="16" fill="#222222" />
    <rect x="496" y="944" width="16" height="16" fill="#222222" />
    <rect x="512" y="944" width="128" height="16" fill="#ff8833" />
    <rect x="640" y="944" width="16" height="16" fill="#222222" />
    <rect x="352" y="960" width="48" height="16" fill="#222222" />
    <rect x="480" y="960" width="16" height="16" fill="#222222" />
    <rect x="496" y="960" width="144" height="16" fill="#ff8833" />
    <rect x="640" y="960" width="16" height="16" fill="#222222" />
    <rect x="464" y="976" width="16" height="16" fill="#222222" />
    <rect x="480" y="976" width="160" height="16" fill="#ff8833" />
    <rect x="640" y="976" width="16" height="16" fill="#222222" />
    <rect x="480" y="992" width="16" height="16" fill="#222222" />
    <rect x="496" y="992" width="144" height="16" fill="#ff8833" />
    <rect x="640" y="992" width="16" height="16" fill="#222222" />
    <rect x="496" y="1008" width="144" height="16" fill="#222222" />
  </g>
</svg>